<svg xmlns="http://www.w3.org/2000/svg" width="639.05" height="365.18" viewBox="0 0 169.08 96.619"><g stroke-width=".161"><path fill="#239f40" d="M0 0h169.08v96.62H0z" class="cls-4"/><path fill="#fff" d="M0 31.989h169.08v64.412H0z" class="cls-1"/><path fill="#da0000" d="M0 64.195h169.08v32.206H0z" class="cls-3"/></g><path fill="#ffbb26" d="M65.845 48.414s-.455-4.917.525-7.935c.677-2.082 1.722-3.79 3.41-5.18 2.64-2.174 6.716-2.748 9.576-1.443-2.504.13-5.857.976-7.673 2.493a9.8 9.8 0 0 0-3.016 4.524c-.915 2.944-.46 7.674-.46 7.674l-2.36-.13z" class="cls-2"/><path d="m68.362 48.695-2.646-.147-.01-.12c-.006-.05-.447-4.983.53-7.993.727-2.235 1.825-3.903 3.455-5.246 1.288-1.061 2.984-1.792 4.773-2.056 1.776-.263 3.534-.052 4.95.594l.523.238-.575.03c-2.386.126-5.778.95-7.59 2.46a9.7 9.7 0 0 0-2.972 4.459c-.895 2.882-.457 7.57-.454 7.616l.016.163zm-2.386-.414 2.077.116c-.07-.862-.338-4.937.478-7.565a10 10 0 0 1 3.061-4.591c.854-.712 2.108-1.332 3.628-1.793a18 18 0 0 1 3.52-.689c-1.257-.444-2.737-.568-4.233-.348-1.739.258-3.385.966-4.636 1.995-1.588 1.308-2.657 2.933-3.366 5.116-.874 2.694-.589 6.986-.528 7.759z"/><path d="M67.63 40.373c-.846 2.552-.846 5.367-.762 7.785l.314-.012c-.084-2.408-.065-5.184.749-7.675s2.407-4.697 5.515-6.01c-3.71.834-5.382 4.596-5.818 5.912z"/><path fill="#ffbb26" d="M65.826 46.564h2.256v5.06h-2.256z" class="cls-2"/><path d="M68.224 51.764h-2.538v-5.341h2.538zm-2.256-.282h1.974v-4.778h-1.974z"/><path fill="#ffbb26" d="M74.853 56.112c-1.356-1.26-1.457-.306-4.17-3.962 0 0-1.186.363-1.802.387a2.7 2.7 0 0 1-.955-.129c-.557-.182-1.52-.837-1.52-.837l-.248-2.126s-.49-.079-.636-.29a.59.59 0 0 1 0-.644c.182-.26.463-.32.813-.419.654-.183 1.383-.17 2.05-.032.59.123 1.05.408 1.626.58 1.771.53 5.514.87 5.514.87l-.672 6.6z" class="cls-2"/><path d="m74.964 56.406-.207-.191c-.429-.398-.72-.564-1.03-.741-.635-.362-1.294-.737-3.1-3.161-.297.087-1.21.343-1.743.364a2.9 2.9 0 0 1-1.003-.135c-.57-.187-1.516-.828-1.556-.855l-.053-.036-.243-2.087c-.17-.038-.491-.135-.623-.327a.74.74 0 0 1 0-.805c.198-.282.484-.36.816-.452l.073-.021c.624-.176 1.376-.187 2.115-.034.353.072.662.203.962.327.216.09.44.183.676.254 1.74.52 5.45.86 5.486.865l.142.013-.715 7.024h.003zm-4.228-4.421.06.08c1.814 2.446 2.453 2.81 3.072 3.163.259.148.526.3.873.594l.63-6.187c-.71-.068-3.81-.385-5.4-.861-.253-.076-.482-.173-.705-.266-.3-.126-.583-.245-.91-.313-.696-.143-1.401-.133-1.984.031l-.074.021c-.303.084-.522.145-.662.343a.46.46 0 0 0 0 .483c.077.111.364.201.543.23l.104.018.013.106.24 2.062c.208.136.973.634 1.432.784.28.092.592.133.905.122.59-.022 1.755-.377 1.766-.38l.095-.029h.002z"/><path fill="#ffbb26" d="M65.699 51.184s.908.01 1.343-.032c.315-.03.581-.196.92-.064.2.078.387.483.387.483s-.306.37-.53.45c-.624.224-1.489.273-2.05-.064-.15-.09-.209-.286-.212-.45 0-.117.142-.323.142-.323" class="cls-2"/><path d="M66.784 52.34c-.39 0-.778-.075-1.088-.262-.203-.122-.277-.374-.28-.57-.002-.15.127-.346.165-.404l.042-.062h.074c.01 0 .907.01 1.329-.03.09-.008.178-.03.27-.053.206-.052.441-.108.714-.002.241.095.43.478.465.556l.037.08-.056.068c-.034.04-.337.402-.591.494a3.3 3.3 0 0 1-1.083.187h.002zm-1.01-1.016a.6.6 0 0 0-.077.179c0 .114.04.269.143.332.533.32 1.376.253 1.931.053.116-.042.292-.21.41-.34-.075-.135-.19-.298-.273-.332-.188-.074-.353-.033-.543.013-.098.024-.2.05-.31.06-.368.035-1.049.035-1.28.034z"/><path fill="#ffbb26" d="M65.663 50.379s.909.01 1.343-.032c.316-.03.757-.261 1.095-.129.202.079.388.483.388.483s-.306.37-.53.451c-.624.224-1.666.337-2.226 0-.15-.09-.21-.287-.213-.45 0-.117.142-.323.142-.323z" class="cls-2"/><path d="M66.713 51.505c-.4 0-.78-.068-1.051-.232-.203-.123-.277-.374-.28-.57-.002-.15.127-.346.165-.404l.042-.062h.074c.01 0 .907.01 1.329-.03.093-.01.204-.039.323-.071.266-.073.567-.153.836-.048.242.095.43.478.466.555l.037.08-.057.068c-.034.04-.336.403-.59.495-.374.133-.848.22-1.295.22zm-.972-.986a.6.6 0 0 0-.078.179c0 .114.04.269.144.332.486.291 1.452.223 2.106-.012.114-.042.291-.209.409-.34-.074-.135-.188-.297-.272-.331-.184-.071-.425-.007-.66.058-.13.035-.255.07-.37.08-.368.036-1.05.036-1.281.034z"/><path fill="#ffbb26" d="M65.663 49.477s.909.01 1.343-.032c.316-.03.757-.26 1.095-.129.202.08.388.483.388.483s-.306.37-.53.451c-.624.224-1.666.337-2.226 0-.15-.09-.21-.286-.213-.45 0-.117.142-.323.142-.323z" class="cls-2"/><path d="M66.713 50.603c-.4 0-.78-.068-1.051-.232-.203-.122-.277-.374-.28-.57-.002-.15.127-.346.165-.404l.042-.061h.074c.01 0 .907.01 1.329-.031.093-.01.204-.039.323-.07.266-.073.567-.154.836-.05.242.096.43.48.466.556l.037.08-.057.069c-.034.04-.336.402-.59.494-.374.134-.848.22-1.295.22zm-.972-.986a.6.6 0 0 0-.078.18c0 .113.04.268.144.33.486.292 1.452.225 2.106-.01.116-.042.291-.21.409-.34-.074-.135-.188-.298-.272-.332-.184-.07-.425-.006-.66.058-.13.035-.255.07-.37.08-.368.036-1.05.034-1.281.034z"/><path fill="#ffbb26" d="M68.65 47.224h1.527l.733-.49-.73-.503h-1.526l-1.656-.41-1.655.41h-1.614l-.73.502.734.491h1.613l1.652.474z" class="cls-2"/><path d="m66.998 47.846-1.671-.48h-1.638l-.94-.631.937-.644h1.64L67 45.675l1.673.416h1.554l.937.644-.94.631h-1.551l-1.672.48zm-3.224-.762h1.591l1.633.469 1.633-.469h1.504l.525-.352-.523-.36h-1.501l-1.638-.407-1.639.408h-1.588l-.523.359.525.352z"/><path fill="#ffbb26" d="M87.642 32.891q-.283 0-.563.013l.172 10.15-1.509-6.762q-.59.097-1.162.25l1.93 6.927-4.164-9.602q-.579.218-1.14.482l4.594 9.66-4.26-6.185q-.499.297-.965.64l4.074 5.32-7.287-6.854q-.437.405-.84.844l7.772 6.858-6.165-3.736q-.329.444-.61.923l7.323 3.982.282-.443.13.12.606-.553.296-.188v.014l.65-.241v.012l.563-.133h.562l.576.133v-.012l.65.241v-.014l.297.188.605.554.13-.12.209.336-.149.054.311.7.179.685 8.391-1.509q-.08-.541-.212-1.06l-8.224 1.856 10.968-3.953q-.196-.54-.435-1.053l-9.81 3.874 6.367-3.46q-.281-.48-.609-.925l-6.156 3.728 7.767-6.85q-.403-.435-.838-.838l-7.282 6.854 4.065-5.324c-.31-.227-.63-.443-.962-.64l-3.842 5.577-.103-.054 4.28-9a15 15 0 0 0-1.146-.482l-3.93 9.064-.06-.032 1.77-6.354q-.578-.156-1.17-.254l-1.396 6.193.176-9.578a15 15 0 0 0-.702-.018z" class="cls-2"/><path d="m90.64 47.29-.176-.676-1.949.44 1.868-.673-.203-.456-.855.338.81-.44-.07-.157-.194-.176-.122.074.103-.092-.48-.438-.218-.136-.597-.223-.64-.148h-.528l-.405.097.217.78-.327-.754-.113.027-.409.153.34.713-.46-.668-.063.024-.218.137-.48.438.105.092-.122-.074-.193.177-.103-.095-.263.41-7.567-4.115.074-.126c.189-.319.397-.633.619-.934l.075-.103 4.928 2.985-6.699-5.91.098-.107c.29-.314.567-.593.849-.852l.097-.089 6.119 5.757-3.108-4.056.116-.086c.315-.231.646-.449.977-.647l.113-.067 3.333 4.84-3.895-8.193.127-.06c.375-.177.763-.341 1.15-.486l.126-.047 3.402 7.847-1.419-5.091.137-.038c.385-.103.78-.188 1.176-.252l.132-.021 1.235 5.538-.151-8.9.138-.005c.22-.008.401-.013.569-.013.228 0 .467.006.708.017l.137.007-.153 8.335 1.122-4.978.13.021c.39.065.79.152 1.184.258l.137.037-1.391 4.993 3.362-7.75.126.047c.42.158.799.317 1.158.486l.127.06-3.897 8.196 3.335-4.84.113.067c.318.19.647.408.972.648l.116.085-3.108 4.07 6.126-5.764.096.088c.29.268.575.553.846.846l.098.106-6.692 5.905 4.92-2.979.075.103q.318.433.617.937l.074.126-4.467 2.428 7.787-3.075.056.12q.242.522.44 1.065l.048.132-8.964 3.232 6.142-1.387.033.132q.133.52.216 1.076l.02.135-8.654 1.556zm.097-.739.108.416 8.127-1.46a11 11 0 0 0-.156-.78zm-.294-.727.204.46h.002l10.834-3.907q-.15-.399-.327-.789l-10.55 4.166.004.007-.169.06h.002zm-.279-.25-.097.088.124-.045zm.122-.337.234.377 7.07-3.844q-.218-.36-.449-.682l-6.853 4.151h-.002zM77.718 41.76l7.079 3.85.237-.372-6.865-4.157q-.24.333-.453.68h.002zm7.38 3.375.16.148.399-.365-8.293-7.8q-.315.296-.638.64l8.367 7.384.003-.007zm4.57-.21.393.358.161-.15.003.007 8.36-7.373a15 15 0 0 0-.637-.637zm-.65-.448.523.331.101.092 4.89-6.404a12 12 0 0 0-.72-.48l-3.838 5.572-.335-.176 4.277-8.993c-.279-.127-.568-.25-.884-.37l-3.939 9.08-.293-.16 1.762-6.325a12 12 0 0 0-.888-.193l-1.671 7.409.198-10.82a13 13 0 0 0-.979-.003l.192 11.205h.534l.419.096V44.3l.65.241zm-8.242-5.987 4.907 6.404.093-.086.283-.18-4.558-6.62q-.371.225-.727.48h.002zm5.523 5.988v.068l.454-.17-4.48-10.33q-.442.17-.875.37l4.813 10.119.09-.057zm.65-.174v.037l.405-.096h.02l-1.738-7.792q-.445.077-.88.188l2.142 7.683.053-.02z"/><path fill="#ffbb26" d="M87.642 41.76c-3.273 0-5.966 2.418-5.966 5.434s2.69 5.45 5.966 5.45 5.983-2.432 5.983-5.45-2.709-5.435-5.983-5.435" class="cls-2"/><path d="M87.642 52.785c-3.367 0-6.108-2.507-6.108-5.591s2.74-5.577 6.108-5.577 6.123 2.501 6.123 5.577-2.748 5.59-6.123 5.59m0-10.884c-3.212 0-5.826 2.375-5.826 5.294s2.614 5.31 5.826 5.31 5.84-2.382 5.84-5.31-2.62-5.294-5.84-5.294"/><path fill="#ffbb26" d="M66.702 64.055h36.4V62h-36.4z" class="cls-2"/><path d="M103.243 64.195H66.562v-2.338h36.68zm-36.4-.281h36.118v-1.777H66.844z"/><path d="M67.853 61.84c.026.388.16 1.008.313 1.186-.593-.085-.622-.798-.696-1.172l.382-.014zm1.102 0c.026.388.16 1.008.312 1.186-.592-.085-.621-.798-.695-1.172l.381-.014zm1.101 0c.026.388.16 1.008.313 1.186-.593-.085-.622-.798-.696-1.172l.382-.014zm1.102 0c.025.388.16 1.008.312 1.186-.593-.085-.622-.798-.696-1.172l.382-.014zm1.101 0c.026.388.16 1.008.312 1.186-.592-.085-.621-.798-.695-1.172l.381-.014zm1.102 0c.025.388.159 1.008.312 1.186-.593-.085-.622-.798-.696-1.172l.382-.014zm1.101 0c.026.388.16 1.008.312 1.186-.592-.085-.621-.798-.695-1.172l.381-.014zm1.101 0c.026.388.16 1.008.313 1.186-.593-.085-.622-.798-.696-1.172l.382-.014zm1.102 0c.026.388.16 1.008.312 1.186-.592-.085-.621-.798-.695-1.172l.381-.014zm1.101 0c.026.388.16 1.008.313 1.186-.593-.085-.622-.798-.696-1.172l.382-.014zm1.102 0c.026.388.16 1.008.312 1.186-.592-.085-.621-.798-.695-1.172l.381-.014zm1.101 0c.026.388.16 1.008.313 1.186-.593-.085-.622-.798-.696-1.172l.382-.014zm1.102 0c.025.388.16 1.008.312 1.186-.593-.085-.622-.798-.696-1.172l.382-.014zm1.101 0c.026.388.16 1.008.313 1.186-.593-.085-.622-.798-.696-1.172l.381-.014zm1.102 0c.025.388.159 1.008.312 1.186-.593-.085-.622-.798-.696-1.172l.382-.014zm1.101 0c.026.388.16 1.008.312 1.186-.592-.085-.621-.798-.695-1.172l.381-.014zm1.101 0c.026.388.16 1.008.313 1.186-.593-.085-.622-.798-.696-1.172l.382-.014zm1.102 0c.026.388.16 1.008.312 1.186-.592-.085-.621-.798-.695-1.172l.381-.014zm1.101 0c.026.388.16 1.008.313 1.186-.593-.085-.622-.798-.696-1.172l.382-.014zm1.102 0c.026.388.16 1.008.312 1.186-.592-.085-.621-.798-.695-1.172l.381-.014zm1.101 0c.026.388.16 1.008.313 1.186-.593-.085-.622-.798-.696-1.172l.382-.014zm1.102 0c.025.388.16 1.008.312 1.186-.593-.085-.622-.798-.696-1.172l.382-.014zm1.101 0c.026.388.16 1.008.313 1.186-.593-.085-.622-.798-.696-1.172l.382-.014zm1.102 0c.025.388.159 1.008.312 1.186-.593-.085-.622-.798-.696-1.172l.382-.014zm1.101 0c.026.388.16 1.008.312 1.186-.592-.085-.621-.798-.695-1.172l.381-.014zm1.101 0c.026.388.16 1.008.313 1.186-.593-.085-.622-.798-.696-1.172l.382-.014zm1.102 0c.026.388.16 1.008.312 1.186-.592-.085-.621-.798-.695-1.172l.381-.014zm1.101 0c.026.388.16 1.008.313 1.186-.593-.085-.622-.798-.696-1.172l.382-.014zm1.102 0c.026.388.16 1.008.312 1.186-.592-.085-.621-.798-.695-1.172l.381-.014zm1.101 0c.026.388.16 1.008.313 1.186-.593-.085-.622-.798-.696-1.172l.382-.014zm1.102 0c.025.388.16 1.008.312 1.186-.593-.085-.622-.798-.696-1.172l.382-.014zm1.101 0c.026.388.16 1.008.313 1.186-.593-.085-.622-.798-.696-1.172l.382-.014z"/><path fill="#ffbb26" d="M89.151 56.73c-.712 1.187.276 2.246-.26 3.155 0 0-1.14-.205-1.733-.23-.411-.018-1.017-.018-1.368.143-.626.288-1.167.682-1.452 1.12-.519.8.114 1.538 1.05 1.147.837.77 1.823.277 3.03-.143.248-.087.61.006.915.069.317.064.676.116.976 0 .712-.275 1.195-1.085 1.646-2.387l.702.295c.008-.555-.24-.98-.564-1.365l.838.281c.004-.554-.266-.958-.542-1.262l.806.298s-.068-.288-.08-.715c-.009-.277.057-.681.002-.865-.093-.317-.217-.443-.298-.675a6 6 0 0 1-.143-.566c-2.425-1.063-1.903-3.567-1.457-4.627L86.6 53.588c-.932.607.348 2.793 2.55 3.145v-.003z" class="cls-2"/><path d="M86.414 62.61c-.37 0-.72-.104-1.052-.384-.47.17-.91.09-1.164-.214-.256-.306-.247-.754.024-1.17.283-.437.82-.854 1.51-1.173.294-.135.762-.187 1.434-.156.497.022 1.356.164 1.65.214.168-.354.1-.74.021-1.182-.092-.517-.193-1.098.1-1.712a4 4 0 0 1-1.804-.902c-.499-.438-.845-.966-.948-1.45-.095-.448.026-.807.341-1.012l5.012-3.455-.187.442c-.113.27-.472 1.226-.338 2.24.133 1.021.713 1.762 1.723 2.205l.066.029.014.07s.077.376.139.551c.03.089.069.161.112.245.06.114.13.242.186.436.04.137.027.342.014.558-.008.119-.014.243-.011.343.013.407.075.684.077.687l.06.255-.596-.22c.154.25.28.57.275.964v.193l-.597-.2c.183.29.33.648.323 1.09l-.003.21-.757-.318c-.49 1.368-.996 2.066-1.678 2.33-.331.13-.718.076-1.054.007l-.098-.02c-.261-.056-.558-.118-.741-.054l-.395.142c-.596.215-1.146.415-1.658.415zm-.996-.71.066.062c.682.626 1.48.336 2.492-.03l.397-.144c.258-.09.595-.02.892.043l.097.021c.295.062.633.108.895.007.619-.24 1.087-.928 1.564-2.301l.05-.142.634.266c-.041-.356-.204-.683-.52-1.058l-.322-.383 1.115.375c-.057-.438-.302-.759-.493-.97l.153-.227.576.213a4 4 0 0 1-.04-.493 4 4 0 0 1 .013-.369c.011-.174.022-.37-.003-.46-.049-.166-.108-.277-.165-.383-.045-.086-.093-.174-.13-.285a5 5 0 0 1-.132-.514c-1.05-.482-1.68-1.31-1.821-2.395-.102-.768.06-1.502.206-1.966l-4.256 2.936c-.274.177-.272.49-.222.72.183.863 1.273 1.938 2.713 2.169l.206.032-.106.179c-.355.589-.255 1.15-.16 1.694.086.487.174.992-.101 1.459l-.05.083-.097-.017c-.01-.002-1.138-.203-1.713-.23-.617-.027-1.055.019-1.303.133-.644.296-1.138.676-1.393 1.07-.2.308-.217.629-.043.836.187.224.54.263.923.102l.083-.035z"/><path d="M89.245 54.629c-.324-.12-.809-.385-.915-.855l.35-.733c-.152.828.404 1.433.565 1.588m-.53.446c-.324-.12-.809-.385-.915-.855l.351-.733c-.153.828.403 1.433.564 1.588m-.446.525c-.324-.12-.809-.385-.915-.855l.351-.733c-.153.828.403 1.433.564 1.588m-.569 4.92s-.697-.036-1.108.028a1.9 1.9 0 0 0-.768.296c-.262.18-.578.408-.665.754-.038.155.008.31.045.43s.074.216.074.216l.311-.121s-.043-.076-.074-.176a.7.7 0 0 1-.029-.283c.053-.216.287-.412.532-.578.582-.46 1.15-.322 1.684-.565zm2.42-.122c.247-.331.666-.71.812-1.169s.198-.943.032-1.335c-.315.137-.961 2.414-.845 2.504zm1.773-3.663c-.082.468-.847.456-1.177.336-.331-.117-.578-.521-.412-.9.132.516.96.756 1.591.564zm.123-1.151c-.082.468-.847.455-1.177.336-.332-.117-.578-.522-.412-.9.132.515.96.755 1.59.564z"/><path fill="#ffbb26" d="M103.472 37.352c.141.64-.142 1.082-.51 1.259-.556.266-1.073.087-1.537-.31-.604-.514-1.013-1.2-1.55-1.655-.684-.574-1.508-.73-2.217-.686a2.77 2.77 0 0 0-1.802.794c-.914.918-1.15 2.564-.191 3.917.902 1.273 3.612 2.178 4.64 2.948.922.69 1.33 1.148 1.506 1.657s.245 1.155-.029 1.776c-.33.749-1.117 1.07-2.291 1.094-1.56.03-3.032-1.289-4.538-1.51-2.82-.413-3.622.683-6.241.714-5.19.061-7.308-1.507-7.308-1.507l-5.626 6.513c-1.719.641-1.809 3.007 0 4.28-.517.297-1.03.912-1.256 1.427-.285.65-.519 1.052-.872 1.522 0 0-1.136-.203-1.73-.229-.41-.017-1.022-.014-1.373.149-.626.288-1.164.678-1.447 1.117-.519.799.112 1.536 1.048 1.143.837.77 1.821.287 3.029-.135.248-.087.613.005.916.068.317.064.68.122.976 0 .696-.288 1.01-1.03 1.507-1.548.234-.244.694-.74.694-.74l.458.578c.309-.48.323-.96.25-1.44l.577.618c.305-.478.282-.956.206-1.346l.546.619s.09-.27.311-.646c.143-.245.42-.57.474-.754.09-.317.117-.726.117-.726.316.275.556.417.96.364.058-.575.1-.749.251-.982 2.008-.097 3.878-.417 5.57-1.063 1.279-.488 2.464-1.155 3.517-2.047.275-.232.496-.356.754-.618.252-.26 1.302-.127 1.832.067.256.094.577.485.577.485.423 1.08 1.425 3.66 4.182 4.213-.712 1.186.27 2.256-.266 3.162 0 0-1.137-.215-1.73-.241-.41-.018-1.008-.015-1.359.148-.626.288-1.178.678-1.462 1.117-.518.8.113 1.551 1.048 1.158.838.77 1.822.274 3.03-.148.247-.087.613.005.916.068.317.064.676.116.976 0 .711-.276 1.202-1.082 1.655-2.382l.694.284c.008-.556-.238-.975-.562-1.36l.842.284c.005-.554-.27-.962-.546-1.266l.814.296s-.076-.286-.09-.713c-.007-.277.056-.678 0-.861-.092-.318-.215-.442-.295-.674-.065-.185-.134-.565-.134-.565-1.453-.67-1.773-1.774-1.787-2.773-.02-1.317-.239-2.062-1.153-2.86.32-.051.65-.01.93-.006 1.746.02 3.176-.796 3.603-1.994.285-.798.288-1.695-.058-2.38-.496-.98-1.021-1.404-2.023-2.153-1.129-.845-3.736-1.787-4.433-2.772-.747-1.055-.53-2.137.088-2.76.608-.61 1.601-.897 2.675-.054.644.506 1.036 1.224 1.567 1.669.62.518 1.7.946 2.63.404.964-.564 1.091-1.398.998-2.107.161-.58.718-1.078 1.692-1.123-.309-.593-1.729-1.19-2.333.048-.725-.986-2.11-.507-2.369.431a2.08 2.08 0 0 1 2.065.752z" class="cls-2"/><path d="M95.1 62.616c-.37 0-.717-.105-1.049-.384-.467.168-.905.089-1.16-.215-.257-.31-.249-.762.022-1.18.278-.429.818-.844 1.522-1.17.293-.135.772-.19 1.425-.16.497.022 1.352.172 1.647.225.167-.355.1-.743.023-1.186-.09-.521-.192-1.106.106-1.723-2.675-.639-3.664-3.146-4.092-4.238-.095-.111-.332-.362-.502-.425-.588-.216-1.516-.272-1.683-.101s-.317.283-.475.402c-.092.07-.187.14-.288.227-1.018.862-2.215 1.557-3.558 2.07-1.599.61-3.412.96-5.539 1.069-.105.182-.142.357-.192.86l-.01.11-.11.015c-.358.049-.604-.04-.867-.23-.02.145-.05.33-.096.493-.039.137-.161.309-.29.492-.071.102-.145.205-.197.293a3.6 3.6 0 0 0-.298.62l-.077.23-.414-.468c.005.3-.054.647-.277.995l-.098.153-.42-.452c.006.341-.058.73-.31 1.119l-.106.166-.478-.606c-.151.163-.423.453-.584.622-.157.163-.292.346-.437.541-.301.407-.613.83-1.119 1.039-.335.138-.721.077-1.058.008l-.09-.02c-.264-.056-.565-.119-.752-.053l-.377.134c-1.035.373-1.932.699-2.728.029-.47.169-.91.09-1.162-.213-.255-.304-.247-.753.024-1.17.281-.435.818-.85 1.507-1.17.295-.135.78-.19 1.44-.16.505.022 1.383.167 1.661.215.326-.441.541-.824.804-1.423a3.63 3.63 0 0 1 1.138-1.379c-.866-.686-1.322-1.682-1.198-2.647.105-.813.601-1.446 1.361-1.742l5.69-6.586.104.077s.536.39 1.686.762c1.063.344 2.886.748 5.536.718 1.111-.013 1.89-.22 2.646-.422 1.02-.272 1.984-.53 3.617-.29.69.101 1.376.428 2.038.742.807.384 1.641.781 2.475.765 1.184-.022 1.871-.343 2.166-1.01.28-.636.17-1.26.026-1.673-.168-.484-.577-.93-1.46-1.589-.357-.267-.943-.562-1.564-.874-1.174-.59-2.506-1.258-3.105-2.107a3.35 3.35 0 0 1-.631-2.212 3 3 0 0 1 .839-1.884 2.9 2.9 0 0 1 1.893-.836c.622-.037 1.529.056 2.316.72.274.23.507.509.754.803.244.293.499.598.798.852.48.41.934.506 1.385.29.29-.138.556-.491.441-1.07-.48-.574-1.188-.827-1.903-.677l-.225.047.06-.223c.146-.525.627-.948 1.197-1.054.49-.09.947.06 1.285.414.255-.395.632-.614 1.08-.62h.02c.61 0 1.19.388 1.38.753l.102.195-.221.01c-.8.038-1.378.409-1.556.995.121.984-.238 1.73-1.07 2.217-.45.263-.98.337-1.533.213a3 3 0 0 1-1.258-.63c-.254-.212-.472-.478-.702-.76-.26-.316-.527-.642-.862-.907-1.273-1-2.225-.22-2.488.042-.766.77-.589 1.85-.074 2.578.405.57 1.508 1.14 2.574 1.691.707.366 1.376.712 1.829 1.05 1.003.752 1.55 1.19 2.063 2.203.35.692.375 1.623.066 2.491-.446 1.255-1.918 2.089-3.675 2.089h-.063q-.12-.001-.25-.01-.174-.01-.349-.01c.784.785.945 1.566.963 2.744.02 1.277.562 2.12 1.706 2.648l.066.03.012.073s.068.372.128.544c.03.09.069.161.112.245.06.113.128.241.186.435.04.136.029.341.016.558-.007.118-.015.24-.012.339.013.402.084.68.084.682l.068.26-.61-.223c.157.253.284.575.281.97v.193l-.604-.201c.182.288.329.645.322 1.085l-.003.206-.749-.304c-.49 1.362-.998 2.061-1.687 2.328-.332.13-.718.076-1.055.007l-.09-.02c-.264-.056-.565-.119-.752-.053q-.207.073-.404.145c-.594.216-1.142.416-1.652.416zm-.99-.71.065.06c.678.624 1.474.336 2.48-.03q.2-.073.408-.146c.26-.09.602-.02.901.043l.089.018c.295.061.633.108.897.006.62-.24 1.104-.948 1.573-2.298l.048-.14.627.255c-.053-.446-.287-.781-.517-1.055l-.322-.383 1.119.375c-.056-.436-.304-.759-.498-.971l.153-.227.58.21a4 4 0 0 1-.043-.49c-.004-.111.003-.24.01-.364.01-.174.022-.372-.004-.462-.048-.166-.108-.277-.164-.384a2 2 0 0 1-.13-.283 4 4 0 0 1-.125-.514c-1.193-.575-1.782-1.512-1.803-2.868-.02-1.232-.189-1.958-1.105-2.757l-.225-.196.296-.048c.245-.04.494-.028.713-.018q.128.008.242.008c1.665.02 3.056-.746 3.469-1.9.283-.797.264-1.646-.052-2.27-.485-.959-.986-1.36-1.98-2.105-.435-.326-1.092-.665-1.79-1.026-1.096-.567-2.23-1.153-2.673-1.78-.81-1.144-.531-2.3.103-2.94.625-.628 1.704-.974 2.862-.066.359.284.637.622.905.95.22.27.43.525.663.722.643.537 1.654.866 2.469.39.744-.436 1.048-1.078.929-1.967l-.003-.029.008-.027c.182-.657.76-1.095 1.567-1.205a1.47 1.47 0 0 0-.994-.418h-.016c-.285.003-.678.119-.936.645l-.101.21-.139-.187c-.278-.379-.695-.55-1.143-.467-.385.07-.72.317-.89.64.744-.073 1.459.231 1.951.84l.021.025.007.033c.137.624-.094 1.18-.588 1.415-.554.264-1.122.153-1.69-.33-.317-.27-.577-.583-.83-.886-.239-.285-.466-.555-.72-.77-.717-.602-1.546-.687-2.118-.653a2.63 2.63 0 0 0-1.711.753 2.7 2.7 0 0 0-.757 1.707 3.08 3.08 0 0 0 .58 2.03c.558.79 1.856 1.44 3.001 2.015.633.318 1.23.619 1.607.9.931.698 1.367 1.181 1.556 1.724.16.46.283 1.16-.034 1.879-.338.766-1.129 1.151-2.417 1.177-.902.016-1.765-.395-2.602-.792-.675-.32-1.311-.623-1.96-.718-1.577-.232-2.512.017-3.504.283-.771.206-1.569.419-2.715.432-1.49.017-3.68-.097-5.646-.738-.898-.293-1.427-.591-1.64-.725l-5.567 6.448-.034.013c-.68.253-1.123.81-1.214 1.528-.12.921.359 1.88 1.246 2.506l.18.127-.191.11c-.464.265-.967.837-1.197 1.36-.283.644-.523 1.065-.887 1.55l-.052.068-.085-.014c-.011-.002-1.135-.201-1.71-.227-.607-.027-1.06.02-1.31.135-.642.296-1.135.675-1.387 1.066-.2.31-.218.63-.045.836.186.222.539.26.92.101l.084-.035.066.061c.685.63 1.49.34 2.508-.029q.185-.068.38-.135c.26-.09.6-.02.901.043l.089.018c.295.061.633.116.894.008.433-.179.708-.552 1-.947.143-.193.291-.393.459-.568.23-.242.687-.734.692-.74l.111-.12.43.544c.164-.331.203-.694.13-1.169l-.067-.45.754.81c.19-.397.154-.782.096-1.081l-.096-.506.735.834c.052-.116.13-.274.234-.454.058-.098.135-.208.21-.314.104-.148.223-.317.249-.407.085-.3.113-.694.113-.698l.019-.283.214.187c.266.232.457.35.74.34.052-.485.1-.682.262-.93l.038-.06.073-.004c2.129-.103 3.937-.448 5.526-1.055 1.314-.5 2.483-1.182 3.475-2.022.108-.092.207-.164.302-.237.15-.113.29-.217.442-.374.329-.336 1.466-.156 1.981.034.283.105.6.485.636.527l.015.018.014.035c.42 1.07 1.404 3.576 4.073 4.111l.194.039-.103.17c-.354.59-.256 1.155-.16 1.7.085.49.172.996-.104 1.463l-.05.085-.096-.017c-.012-.002-1.134-.214-1.709-.24-.597-.026-1.045.02-1.295.135-.655.303-1.154.681-1.404 1.066-.201.31-.217.636-.042.847.187.224.54.264.918.105l.084-.036z"/><path d="M96.393 48.57c.624-.11 1.315.282 1.988.529.401.146.764.098.897.19l-.607.11.759 1.334c-.361-.665-2.358-2.017-3.036-2.164zm-1.516 3.729c.158 1.141.533 2.022 1.197 2.677s1.592 1.08 2.807 1.347c-.42-.617-1.823-1.078-2.453-1.628-.85-.744-1.011-2.007-1.55-2.396m3.617 7.4c.184-.363.528-.8.59-1.275s.024-.96-.21-1.32c-.286.182-.512 2.525-.382 2.595zm-4.177-7.993c.26-.41-.341-.839-.681-.939-.34-.098-.81.073-.944.462.46-.325 1.268-.034 1.623.477zm-7.768-.356c.233.834 2.808 1.918 3.332 1.663l.744-.425c-.93.47-3.363-.426-4.074-1.238zm-1.277.184c-.039.678 2.884 2.304 3.565 2.191l.767-.39c-1.008.529-4.306-1.373-4.332-1.8zm-.675.803c.129.852 2.491 2.195 3.042 1.997l.792-.346c-1.233.288-3.352-.817-3.834-1.652zm-.734.783c-.06.652 1.465 1.692 2.183 1.821l.827-.27c-1.042.162-2.714-.878-3.01-1.551m-1.164.187c-.084.555 1.206 1.956 1.782 2.006l.859-.17c-.831.212-2.556-1.429-2.641-1.836m-.678.848c-.034.305.352 1.124.932 1.39l.874-.077c-1.114-.12-1.703-1.11-1.806-1.313m-1.036.48c.005.319.099.826.541 1.087l.878-.03c-.902-.173-1.317-.864-1.419-1.057m-4.25 1.147c.083.468.848.455 1.178.336.332-.117.578-.522.412-.9-.132.515-.96.755-1.59.564zm.02 1.09c.082.468.847.455 1.177.336.332-.117.578-.521.412-.9-.132.515-.96.755-1.59.564zm-2.058 3.31c.358-.23.897-.45 1.213-.834s.55-.82.546-1.238c-.348.026-1.833 1.95-1.759 2.073m21.678.311s-.697-.037-1.108.028a1.9 1.9 0 0 0-.768.296c-.263.179-.578.407-.665.754-.039.154.008.31.045.43s.074.215.074.215l.31-.12s-.043-.076-.073-.176a.7.7 0 0 1-.03-.283c.054-.216.287-.413.532-.578.583-.461 1.15-.323 1.685-.566zm-23.863-.296s-.697-.037-1.108.027a1.9 1.9 0 0 0-.768.297c-.263.178-.578.407-.665.753-.039.155.008.311.045.43.037.121.074.216.074.216l.31-.12s-.043-.076-.073-.176a.7.7 0 0 1-.03-.284c.054-.215.287-.412.532-.578.583-.46 1.15-.322 1.685-.565z"/><path fill="#ffbb26" d="m82.16 49.527-.43.226c-2.92 1.025-5.17.992-8.109 0l-.418 1.074c-.334 1.214-.15 2.283.306 3.146.278-.12.557-.383.835-.634.137.418.076 1.016.558 1.497.545-.278.884-.66 1.087-.938.093.573.333 1.008.814 1.32.483-.31.722-.746.815-1.32.201.278.541.761 1.087 1.04.482-.482.475-.773.627-1.253.243.5.553.752 1.1 1.032.48-.481.42-1.079.557-1.497.23.34.523.576.835.634.239-.31.413-.81.41-1.26.45.32.867.416 1.15.437.113-.588.09-1.04-.003-1.563.424.132.504.252 1.025.254.347-1.164-.066-2.423-1.276-3.316l-.974 1.121z" class="cls-2"/><path d="m76.805 55.384-.076-.05a1.85 1.85 0 0 1-.813-1.118 3.2 3.2 0 0 1-.948.744l-.092.047-.073-.072c-.373-.374-.449-.817-.508-1.173l-.03-.162c-.227.203-.46.397-.698.5l-.12.052-.06-.114c-.522-.986-.632-2.11-.318-3.25l.005-.014.467-1.198.127.043c1.503.507 2.778.744 4.016.749h.032c1.25 0 2.51-.237 3.959-.746l.396-.208 1.042-1.2.104.078c1.213.894 1.709 2.192 1.327 3.469l-.03.1h-.105c-.393 0-.559-.068-.77-.153l-.079-.033c.068.495.057.909-.034 1.379l-.024.122-.125-.01a2.36 2.36 0 0 1-1.013-.328 2.3 2.3 0 0 1-.425 1.097l-.054.069-.085-.016c-.26-.049-.517-.208-.74-.456l-.02.108c-.06.356-.135.797-.509 1.172l-.072.073-.092-.047c-.427-.217-.742-.433-.992-.799-.089.32-.182.604-.572.994l-.072.072-.092-.046c-.431-.221-.737-.558-.952-.833-.136.485-.399.84-.81 1.106l-.075.05h.003zm-.731-1.842.055.335c.085.528.3.903.676 1.172.375-.269.591-.644.676-1.172l.055-.335.216.298c.182.252.48.663.929.926.296-.32.36-.546.443-.852q.032-.125.077-.27l.106-.334.155.315c.201.411.444.651.944.92.25-.293.306-.623.36-.945.026-.15.05-.29.092-.422l.089-.272.16.236c.196.287.427.482.66.554.202-.3.331-.73.33-1.101v-.276l.222.16c.362.26.702.36.951.398.086-.53.052-.94-.025-1.385l-.04-.229.22.07c.13.041.23.08.317.115.174.071.296.12.559.13.28-1.088-.143-2.188-1.15-2.98l-.905 1.042-.472.245c-2.85 1.001-5.125 1.014-8.07.043l-.368.942c-.278 1.021-.198 2.024.235 2.913.205-.119.42-.312.627-.5l.214-.194.068.206c.043.132.067.272.091.422.055.32.112.65.361.944q.555-.311.944-.847l.198-.276z"/><path d="m84.224 51.687-.693-.042-.225.418c-.012-.568-.346-1.078-.412-1.386.156.324.634.694 1.328 1.01zm-1.31 1.223-.582-.209-.28.39c.065-.565-.033-1.49-.055-1.802.11.34.404 1.224.917 1.621m-1.534.632-.343-.21-.28.39c.066-.565-.055-1.688-.076-2 .111.34.491 1.441.7 1.818h-.001zm-1.67.496-.343-.21-.28.39c.066-.565.098-1.568.075-1.88.112.339.339 1.321.55 1.7zm-1.712.188-.343-.21-.28.39c.066-.565.098-1.568.076-1.88.11.34.338 1.322.549 1.7zm-2.423.06.343-.21.28.39c-.066-.565-.098-1.272-.076-1.585-.11.34-.338 1.026-.549 1.405zm-1.619-.62.343-.21.28.39c-.065-.565-.098-1.272-.075-1.585-.111.34-.338 1.026-.55 1.405z"/><path fill="#ffbb26" d="M72.811 46.17s-1.077 1.723-1.293 2.613c-.14.575-.12 1.472-.12 1.472.349-.02.7-.09 1.05-.404.035.491-.018.98.323 1.472.35-.123.781-.285 1.13-.884.028.61.152.97.526 1.546.458-.134.818-.632 1.172-.957.008.444.129.942.565 1.583.573-.312.905-1.037 1.039-1.448.145.388.465 1.134 1.038 1.448.437-.641.56-1.137.566-1.583.352.327.713.823 1.172.957.373-.575.497-.936.525-1.546.35.599.78.76 1.13.884.342-.491.287-.981.324-1.472.35.314.83.586 1.18.607.07-.063.343-.924.211-1.438.412.325.764.543 1.372.527.1-.476.015-.952-.087-1.382.66.227 1.377.288 1.888.043-1.192-2.017-3.076-2.346-5.147-2.694-2.345 1.942-5.158 2.305-8.564.657z" class="cls-2"/><path d="m78.286 52.796-.112-.061c-.377-.206-.702-.606-.966-1.19-.166.377-.479.918-.976 1.19l-.113.061-.072-.105c-.32-.468-.503-.903-.566-1.347l-.06.062c-.271.284-.579.606-.956.715l-.1.03-.056-.088c-.306-.47-.45-.803-.514-1.228-.338.398-.713.53-.979.621l-.101.036-.061-.089c-.302-.433-.318-.86-.335-1.274v-.004c-.32.207-.638.254-.917.27l-.146.008-.003-.146c0-.037-.016-.921.125-1.51.218-.901 1.266-2.582 1.311-2.655l.068-.106.114.055c1.64.794 3.19 1.132 4.605 1.005 1.356-.121 2.638-.675 3.807-1.643l.05-.042.063.012c2.063.346 4.01.674 5.243 2.761l.077.132-.138.066c-.448.215-1.079.226-1.759.036.08.385.123.792.036 1.204l-.023.11-.11.003a1.9 1.9 0 0 1-1.202-.36c.003.513-.184 1.138-.292 1.236l-.043.04-.06-.003c-.343-.02-.739-.235-1.045-.462-.016.41-.035.836-.333 1.267l-.061.089-.102-.036c-.265-.093-.64-.225-.979-.621-.063.425-.207.758-.513 1.228l-.057.087-.1-.029c-.375-.11-.684-.431-.956-.715q-.03-.03-.06-.062c-.063.444-.246.879-.565 1.347l-.072.105zm-1.093-2.058.142.377c.236.633.528 1.072.864 1.304.315-.49.46-.924.467-1.393l.005-.314.23.215c.096.087.187.183.284.285.232.241.47.49.734.603.318-.505.419-.83.443-1.381l.021-.477.242.412c.296.508.649.673.951.785.198-.337.213-.677.227-1.034q.005-.136.015-.279l.02-.285.213.192c.322.29.722.509 1.008.56.086-.214.255-.858.153-1.253l-.103-.404.327.26c.4.315.7.484 1.166.495.06-.409-.014-.82-.106-1.209l-.06-.248.242.084c.623.214 1.207.251 1.634.11-1.16-1.832-2.974-2.154-4.9-2.477-1.201.98-2.517 1.54-3.911 1.665-1.435.129-2.994-.2-4.64-.976-.235.388-1.032 1.733-1.209 2.465-.1.414-.116 1.012-.118 1.287.265-.03.542-.11.817-.358l.212-.191.021.285q.01.14.015.278c.014.358.027.698.227 1.034.303-.11.655-.277.952-.784l.241-.412.021.476c.024.551.126.878.443 1.382.264-.114.502-.362.734-.604q.144-.153.284-.285l.23-.214.005.314c.008.469.153.903.467 1.393.216-.151.612-.52.863-1.298l.124-.383h.003z"/><path d="m85.203 48.35-.41-.04-.052.464c-.228-.529-.577-1.274-.754-1.543.172.314 1.064 1.026 1.694 1.12zm-1.27 1.01-.548-.313.06.712c-.194-.54-.497-1.301-.658-1.578.255.267.783.913 1.145 1.18zm-1.43.961-.48-.394-.075.71c-.088-.562-.243-1.361-.35-1.657.2.304.6 1.022.906 1.341m-1.556.522-.37-.168-.225.419c-.012-.568-.058-1.377-.124-1.684.158.323.458 1.082.719 1.433m-3.419.724-.317-.241-.326.359c.134-.556.297-1.393.313-1.705.07.348.166 1.19.33 1.587m1.71-.225-.37-.167-.224.418c-.013-.568-.058-1.377-.124-1.684.158.324.457 1.082.718 1.433m-4.088.084.37-.168.224.419c.013-.568.058-1.377.124-1.684-.158.323-.458 1.082-.718 1.433m-1.694-.559.37-.168.224.42c.013-.57.15-1.585.216-1.893-.158.324-.548 1.29-.81 1.64zm-1.442-.79.39-.125.167.44c.087-.562.247-1.256.352-1.554-.199.304-.604.92-.909 1.24"/><path fill="#ffbb26" d="M82.016 44.456c.375.103.53-.019.964.04-.231-.903-.299-1.222-1.085-1.832.58.153.668.011 1.036.047-.818-1.358-.669-2.733-1.89-3.435.382-.923.133-1.11-.199-1.947-.082-.21-.04-.666-.04-.666s-1.045.194-1.422.618c-.218.245-.491.588-.491.588.085-.514.029-.74-.406-1.073-.184.229-.391.74-.609.937-.074-.465-.175-.863-.596-1.16-.367.321-.578.682-.595 1.16-.22-.2-.427-.71-.61-.937-.434.333-.492.559-.405 1.073 0 0-.274-.343-.491-.588-.377-.424-1.422-.618-1.422-.618s.011.449-.04.666c-.121.503-.715 1.155-.2 1.947-1.48.937-1.158 2.195-1.974 3.552.369-.035.438.147 1.018-.006-.786.609-.841.733-1.073 1.634.285-.103.527-.02 1.082-.162-.188.402-.594.697-.821.887-.559.472-.789.944-.928 1.49.368.004.733-.113 1.1-.208-.125.435-.188.755-.038 1.381.55-.2.823-.413 1.175-.621-.045.402-.069.876.076 1.278.367-.098.733-.317 1.1-.69-.008.526.15.9.341 1.243.337-.192.676-.383.949-.622.11.374.135.697.531 1.243.604-.244.728-.6.948-.932.084.308.234.644.675 1.114.578-.38.55-.761.712-1.141.132.273.41.755.847.956.328-.34.38-.802.473-1.079.297.337.641.63 1.118.802.248-.452.256-.832.237-1.203.417.438.835.562 1.252.678.105-.41.076-.823 0-1.233.44.315.881.465 1.32.37.023-.454-.123-.794-.27-1.172.443.077.867.117 1.22.03 0 0-.242-.54-.542-.802-.388-.338-.911-.584-1.298-.924a29 29 0 0 1-.726-.686z" class="cls-2"/><path d="m77.652 50.042-.08-.086c-.335-.358-.51-.645-.61-.885-.162.26-.366.538-.86.738l-.102.042-.065-.09a2.8 2.8 0 0 1-.496-1.08c-.235.176-.502.328-.761.476l-.161.092-.07-.124c-.154-.279-.299-.591-.344-1.002q-.453.386-.937.515l-.126.034-.043-.12c-.123-.34-.132-.722-.11-1.06-.26.16-.526.328-.961.488l-.148.054-.037-.154c-.13-.543-.105-.88-.025-1.218-.293.078-.595.155-.903.15h-.179l.044-.175c.119-.467.327-1.018.972-1.562l.1-.082c.16-.13.363-.297.519-.495-.145.021-.264.03-.369.036a1.2 1.2 0 0 0-.372.056l-.251.092.066-.258c.195-.755.282-1 .737-1.4-.09-.004-.162-.019-.232-.031a.9.9 0 0 0-.3-.023l-.28.026.144-.239c.293-.486.435-.96.573-1.418.232-.77.451-1.5 1.334-2.105-.322-.605-.08-1.143.1-1.544a2.3 2.3 0 0 0 .15-.393c.04-.163.041-.51.038-.63l-.005-.174.17.033c.046.008 1.097.209 1.502.663.069.079.145.168.215.251.023-.275.155-.496.492-.753l.109-.084.085.108c.084.104.168.253.255.41.048.087.1.18.151.263.084-.34.279-.636.596-.915l.084-.072.09.064c.367.26.512.59.594.944.056-.089.111-.189.164-.284.089-.157.171-.306.255-.41l.085-.108.11.084c.336.257.468.478.49.753.072-.083.146-.172.217-.25.404-.455 1.455-.656 1.5-.664l.184-.034-.018.185c-.014.164-.02.472.03.6q.088.218.163.384c.23.523.361.824.08 1.557.722.465.96 1.18 1.209 1.934.16.483.325.984.626 1.485l.143.238-.278-.026c-.123-.011-.211 0-.306.01-.074.008-.153.018-.251.018.465.45.56.82.74 1.523l.068.262-.208-.027a2 2 0 0 0-.436-.005q-.058.005-.118.008c.15.142.32.305.427.398.187.163.414.31.635.453.227.146.462.296.661.471.32.28.567.828.578.85l.07.155-.165.04c-.325.08-.702.057-1.032.01.116.306.211.614.192 1.002l-.005.108-.105.022c-.375.082-.758.01-1.164-.222.044.372.027.683-.05.982l-.035.14-.139-.038c-.331-.092-.699-.195-1.069-.49-.01.285-.066.594-.26.947l-.057.106-.113-.042a2.7 2.7 0 0 1-1.002-.657c-.07.268-.17.62-.44.9l-.07.071-.09-.041c-.333-.153-.583-.45-.759-.736-.088.285-.2.605-.663.91l-.098.064h.011zm-.599-1.63.082.299c.07.254.187.547.56.964.313-.236.382-.462.461-.721.029-.093.058-.19.1-.288l.122-.285.134.278c.113.235.346.638.687.84.178-.223.25-.498.31-.724q.03-.121.064-.224l.077-.23.161.182c.306.346.601.572.946.718.178-.378.18-.699.164-1.017l-.02-.379.263.275c.351.37.702.5 1.045.6.053-.298.042-.624-.032-1.033l-.063-.343.284.203c.397.285.758.404 1.1.366-.005-.343-.115-.619-.237-.934l-.118-.3.246.044c.297.051.664.101.986.064-.09-.17-.25-.436-.425-.59-.185-.162-.41-.307-.63-.449-.228-.148-.467-.299-.668-.476-.224-.197-.71-.67-.731-.691l.135-.237c.182.05.3.04.451.03.085-.007.179-.014.29-.01-.193-.746-.296-1.03-.986-1.564l.123-.248c.338.089.49.07.649.053l.11-.011c-.246-.459-.397-.916-.532-1.329-.255-.77-.474-1.433-1.185-1.842l-.108-.061.046-.114c.292-.706.197-.923-.033-1.448q-.076-.17-.166-.393c-.058-.146-.065-.377-.061-.54-.348.084-.931.27-1.166.535-.213.239-.483.58-.487.583l-.338.425.09-.536c.07-.409.047-.596-.238-.845a5 5 0 0 0-.148.256c-.124.222-.251.45-.396.581l-.193.176-.042-.258c-.063-.39-.142-.736-.45-1-.304.295-.449.602-.462.982l-.011.303-.224-.205c-.143-.13-.272-.36-.396-.58a8 8 0 0 0-.148-.257c-.285.25-.308.437-.238.846l.09.536-.338-.425s-.274-.343-.487-.583c-.236-.268-.827-.454-1.175-.538a3 3 0 0 1-.045.525c-.034.142-.1.288-.17.441-.191.428-.39.871-.05 1.396l.078.12-.12.075c-.89.564-1.094 1.24-1.33 2.024-.123.41-.25.834-.482 1.274q.068.01.13.022c.15.03.29.057.614-.029l.122.248c-.684.532-.783.66-.965 1.335q.1-.011.21-.016c.17-.01.364-.02.644-.093l.288-.074-.126.269c-.177.378-.528.665-.761.856l-.097.08a2.47 2.47 0 0 0-.83 1.234c.226-.022.455-.083.697-.146l.18-.047.238-.061-.067.237c-.108.373-.17.65-.071 1.153.323-.132.538-.266.765-.408q.113-.072.236-.145l.243-.143-.03.28c-.037.326-.063.731.029 1.087.312-.11.61-.31.906-.613l.247-.253-.007.352c-.006.44.112.767.256 1.049.285-.163.572-.334.8-.533l.165-.147.063.213q.03.105.056.208c.07.27.137.526.388.9.38-.18.524-.414.673-.66q.053-.086.11-.174l.17-.258v-.01z"/><path d="M74.162 37.398s.033.313-.014.472c-.09.305-.248.56-.266.875-.011.214.223.618.223.618s.15-.496.399-.593c.246-.096.753.136.753.136s-.032-.458-.103-.633c-.157-.393-.99-.875-.99-.875zm6.176 0s-.83.482-.99.875c-.071.175-.103.633-.103.633s.507-.23.753-.136c.248.097.4.593.4.593s.233-.404.222-.618c-.018-.316-.161-.57-.251-.875-.047-.158-.03-.472-.03-.472zm-6.427 2.653c-.368.225-.497.607-.4.942.077.257.318.459.637.578l-.029.027c-.126.114-.27.267-.325.457-.226.796-.078 1.57.414 2.073-.26.348-.748 1.122-.96 1.562.428-.35.87-.98 1.196-1.36.145.105.311.186.488.257-.182.346-.546 1.26-.68 1.75.389-.45.732-1.237.991-1.642.127.034.262.048.4.067a.95.95 0 0 0 .102.849c-.183.327-.566 1.279-.708 1.776.365-.414.69-1.113.945-1.535q.221.18.546.27a12 12 0 0 0-.177 1.776c.241-.485.369-1.244.502-1.71.092.01.18.027.28.027.058 0 .108-.01.163-.013.094.477.156 1.22.354 1.71a12.4 12.4 0 0 0-.029-1.75c.166-.036.313-.094.443-.161.21.44.445 1.209.768 1.668-.083-.515-.346-1.527-.488-1.857.04-.037.086-.067.118-.108a.96.96 0 0 0 .206-.74c.44.359 1.16.996 1.64 1.278-.286-.4-1.071-1.188-1.434-1.522.372-.078.72-.21.99-.417.418.348 1.27 1.339 1.788 1.643-.303-.425-1.245-1.55-1.567-1.857.464-.502.604-1.256.385-2.032-.055-.192-.2-.343-.325-.457l-.03-.028c.318-.12.56-.32.637-.578.1-.335-.03-.716-.4-.942.105.296.18.532.089.875-.058.219-.27.41-.65.457l-.414.053.34.216s.085.064.191.16.227.236.251.325c.203.715 0 1.322-.428 1.75s-1.108.725-1.876.618c-.533-.074-.548-.195-.546-.633.1-.01.224-.035.34-.095.106-.053.148-.11.191-.16a.6.6 0 0 1 .089-.096c.138-.06.354-.04.354-.04l.177.04.015-.175c.011-.152.048-.25-.074-.498a1 1 0 0 0-.354-.39c-.052-.033-.083-.05-.104-.067s-.025-.026-.029-.04c-.136-.504-.178-.94-.045-1.361.08-.251.355-.464.709-.512.383-.05.849.056 1.064.095a1.27 1.27 0 0 0-1.153-.39c-.431.07-.82.337-.945.726-.153.482-.097.99.045 1.51.021.078.068.144.118.188s.103.077.148.108c.09.06.18.112.251.256.061.124.037.119.03.227-.107-.008-.172-.086-.34-.013-.112.048-.175.13-.223.188s-.092.103-.074.095c-.047.023-.143.045-.222.053s-.148 0-.148 0-.07.008-.149 0-.175-.03-.222-.053c.018.008-.025-.035-.074-.095-.048-.058-.11-.14-.222-.188-.17-.073-.234.005-.34.013-.008-.108-.03-.105.03-.227.07-.144.16-.197.25-.256q.07-.044.149-.108a.3.3 0 0 0 .117-.189c.14-.518.198-1.027.045-1.509-.124-.39-.515-.657-.945-.726a1.27 1.27 0 0 0-1.153.39c.216-.039.681-.145 1.064-.095.355.047.63.26.709.512.134.42.092.857-.045 1.36-.003.015-.008.023-.03.041s-.05.034-.102.068a1 1 0 0 0-.354.39c-.123.247-.086.344-.075.497l.015.175.177-.04s.216-.02.354.04c.01.004.045.042.089.095s.087.108.192.161c.115.058.24.084.34.095.031.464-.05.551-.547.633-.764.126-1.447-.191-1.876-.618s-.63-1.034-.428-1.75c.024-.089.145-.226.251-.324s.192-.161.192-.161l.34-.216-.414-.053c-.38-.048-.591-.238-.65-.457-.093-.343-.015-.579.088-.875h.006zm1.656.764q-.192.001-.458.121c.062.343.46.799 1.139.43-.108-.264-.296-.555-.68-.552h-.001zm3.132 0c-.384-.003-.572.289-.68.553.68.367 1.077-.087 1.139-.43a1.2 1.2 0 0 0-.458-.12H78.7zm-1.567 3.741c.043.024.085.049.191.095.149.065.32.121.503.135.16.013.316.02.473.013.107.234.068.401-.103.606-.188.225-.536.39-1.064.39s-.89-.166-1.079-.39c-.17-.205-.196-.372-.089-.606a4 4 0 0 0 .474-.013 1.5 1.5 0 0 0 .502-.135c.107-.046.15-.07.192-.095m-4.123.646c-.555.391-1.051 1.138-1.624 1.319l.517-.068.06.498c.273-1.074.827-1.018 1.047-1.75zm1.02.217c-.486.46-.999 1.778-1.536 2.033l.502-.149.134.485c.1-1.098.8-1.615.901-2.369zm8.008.189c.15.615 1.135.829 1.388 1.776l.06-.485.605.028c-1.093-.485-1.089-.588-2.053-1.32m-1.139.053c.025.63 1.314 1.557 1.374 2.53l.163-.458.473.202c-.602-.501-1.559-1.909-2.01-2.276zm-6.175.795c-.393.53-.552 1.32-1.034 1.656l.457-.216.237.457c-.11-1.098.382-1.14.34-1.898zm5.51.042c-.025.63.831 1.156.665 2.248l.252-.444.457.241c-.464-.356-.953-1.652-1.374-2.046zm-1.034.19c-.167.744.542 1.34.252 2.41l.296-.43.428.283c-.422-.398-.674-1.683-.976-2.261zm-3.457.429c-.3.578-.257 1.34-.68 1.735l.429-.283.296.417c-.29-1.07.123-1.127-.045-1.871zm2.335.096c-.229.73.379.973 0 2.02l.34-.39.385.296c-.388-.425-.472-1.328-.725-1.924zm-1.02.429c-.25.597-.07 1.069-.457 1.494l.4-.31.325.405c-.378-1.047-.037-.858-.266-1.588h-.001z"/></svg>